# xmcd
#
# Track frame offsets:
#	187
#	11980
#	25820
#	37845
#	50840
#	66192
#	80715
#	93960
#	111272
#	122755
#	136130
#	147792
#	163972
#	176872
#	191402
#	202087
#	217675
#	230447
#
# Disc length: 3254
#
# Revision: 2
# Processed by: cddbd v1.5.1PL0 Copyright (c) Steve Scherf et al.
# Submitted via: audiograbber 1.80
# Normalized: r1:DSETVAR1
#
DISCID=030cb412
DTITLE=Various Artist - Country Songs That Will Live Forever [CD3]
DYEAR=1900
DGENRE=
TTITLE0=Hank Williams Jr With The Mike Curb Congregation - North To Alaska
TTITLE1=Eddy Arnold - The End Of The World
TTITLE2=Me And Bobby McGee - Me And Bobby McGee
TTITLE3=Webb Pierce - Detroit City
TTITLE4=Jimmy Dean - All I Have To Offer You Is Me
TTITLE5=Dottie West - Harper Valley PTA
TTITLE6=Hank Locklin And Danny Davis And The Nashville Brass - Please Help Me I'm Falling
TTITLE7=Elvis Presley With JD Sumner And The Stamps Kathy Westmoreland And Myrne Smith - She Thinks I Still Care
TTITLE8=Floyd Cramer - King Of The Road
TTITLE9=Ronnie Milsap With The Jordanaires - Behind Closed Doors
TTITLE10=Crystal Gayle - Never Ending Song Of Love
TTITLE11=Tompall And The Glaser Brothers - Help Me Make It Through The Night
TTITLE12=Danny Davis And The Nashville Brass With The Nashville Sound - (Hey Won't You Play) Another Somebody Done Somebody Wrong Song
TTITLE13=Reba McEntire - Empty Arms
TTITLE14=Jim Ed Brown - Before The Next Teardrop Falls
TTITLE15=Billy Walker - Fro The Good Times
TTITLE16=Charley Pride With The Nashville Edition - Rhinestone Cowboy
TTITLE17=Conway Twitty - Blue Eyes Crying In The Rain
EXTD=
EXTT0=
EXTT1=
EXTT2=
EXTT3=
EXTT4=
EXTT5=
EXTT6=
EXTT7=
EXTT8=
EXTT9=
EXTT10=
EXTT11=
EXTT12=
EXTT13=
EXTT14=
EXTT15=
EXTT16=
EXTT17=
PLAYORDER=
